Steel.1997.DVDRip.XviD

Source: Kenneth.Johnson.Steel.1997.DVDR.NTSC.DVD5.WAC
Thanks!
 
http://www.imdb.com/title/tt0120207/

Subtitles: none

General
Complete name                            : Steel.1997.DVDRip.XviD.avi
Format                                   : AVI
Format/Info                              : Audio Video Interleave
File size                                : 1.37 GiB
Duration                                 : 1h 36mn
Overall bit rate                         : 2 018 Kbps

Video
ID                                       : 0
Format                                   : MPEG-4 Visual
Format profile                           : Advanced Simple@L5
Format settings, BVOP                    : 1
Format settings, QPel                    : No
Format settings, GMC                     : No warppoints
Format settings, Matrix                  : Default (MPEG)
Muxing mode                              : Packed bitstream
Codec ID                                 : XVID
Codec ID/Hint                            : XviD
Duration                                 : 1h 36mn
Bit rate                                 : 1 817 Kbps
Width                                    : 712 pixels
Height                                   : 392 pixels
Display aspect ratio                     : 16:9
Frame rate                               : 23.976 fps
Color space                              : YUV
Chroma subsampling                       : 4:2:0
Bit depth                                : 8 bits
Scan type                                : Progressive
Compression mode                         : Lossy
Bits/(Pixel*Frame)                       : 0.271
Stream size                              : 1.23 GiB (90%)
Writing library                          : XviD 1.2.1 (UTC 2008-12-04)

Audio
ID                                       : 1
Format                                   : MPEG Audio
Format version                           : Version 1
Format profile                           : Layer 3
Mode                                     : Joint stereo
Mode extension                           : MS Stereo
Codec ID                                 : 55
Codec ID/Hint                            : MP3
Duration                                 : 1h 36mn
Bit rate mode                            : Constant
Bit rate                                 : 192 Kbps
Channel(s)                               : 2 channels
Sampling rate                            : 48.0 KHz
Compression mode                         : Lossy
Stream size                              : 133 MiB (10%)
Alignment                                : Aligned on interleaves
Interleave, duration                     : 42 ms (1.00 video frame)
Interleave, preload duration             : 504 ms
Writing library                          : LAME3.97 
Encoding settings                        : -m j -V 4 -q 2 -lowpass 18.6 -b 192

Screens: 
http://www.shotpix.com/images/01802636925009953872.png 
http://www.shotpix.com/images/91649190860247010807.png 
http://www.shotpix.com/images/60147718467923240315.png 
http://www.shotpix.com/images/63727645683682416436.png 
http://www.shotpix.com/images/96103371247001257347.png 
http://www.shotpix.com/images/34160936853247042874.png